<svg width="54" height="54" viewBox="0 0 54 54" fill="none" xmlns="http://www.w3.org/2000/svg">
<path d="M44.0965 19.5667C43.9218 16.6175 43.0047 13.7602 41.4302 11.2603C39.8557 8.76042 37.675 6.69897 35.0905 5.26744C32.5061 3.83592 29.6018 3.08074 26.6474 3.07207C23.693 3.0634 20.7843 3.80151 18.1915 5.21784C15.5988 6.63417 13.406 8.68278 11.8168 11.1734C10.2277 13.664 9.29373 16.5158 9.10174 19.464C8.90976 22.4122 9.46595 25.361 10.7187 28.0367C11.9714 30.7124 13.88 33.0281 16.2672 34.7687L17.1733 49.9161C17.1894 50.1875 17.2745 50.4502 17.4207 50.6793C17.5669 50.9085 17.7693 51.0964 18.0086 51.2253C18.2479 51.3542 18.5162 51.4197 18.788 51.4157C19.0597 51.4116 19.326 51.3382 19.5613 51.2022L28.1312 46.267L37.2309 50.1552C37.4588 50.2477 37.7049 50.2869 37.9503 50.2698C38.3722 50.2446 38.7668 50.0527 39.0473 49.7365C39.3278 49.4203 39.4712 49.0057 39.446 48.5837L38.5398 33.4363C40.4323 31.6779 41.9119 29.5223 42.8726 27.1243C43.8334 24.7263 44.2513 22.1454 44.0965 19.5667ZM12.2784 21.4702C12.109 18.6383 12.7831 15.8198 14.2156 13.3711C15.648 10.9224 17.7744 8.9534 20.3259 7.71317C22.8774 6.47295 25.7393 6.01718 28.5498 6.4035C31.3603 6.78981 33.9931 8.00086 36.1153 9.8835C38.2376 11.7661 39.7539 14.2358 40.4725 16.9802C41.1911 19.7246 41.0798 22.6205 40.1526 25.3016C39.2254 27.9827 37.524 30.3287 35.2635 32.0429C33.003 33.757 30.285 34.7624 27.4531 34.9318C23.6567 35.1547 19.927 33.8625 17.0821 31.3388C14.2373 28.8152 12.5097 25.2661 12.2784 21.4702ZM15.4602 21.2798C15.3285 19.0773 15.8528 16.8851 16.9669 14.9805C18.081 13.076 19.7349 11.5446 21.7194 10.5799C23.7038 9.61533 25.9298 9.26084 28.1157 9.5613C30.3017 9.86177 32.3494 10.8037 34.0001 12.268C35.6507 13.7322 36.83 15.6531 37.3889 17.7876C37.9479 19.9222 37.8613 22.1745 37.1401 24.2598C36.419 26.3452 35.0957 28.1698 33.3375 29.503C31.5794 30.8363 29.4653 31.6182 27.2628 31.75C24.31 31.9234 21.409 30.9185 19.1963 28.9556C16.9837 26.9927 15.64 24.2322 15.4602 21.2798Z" fill="#4BCCFF"/>
</svg>
