<svg width="62" height="62" viewBox="0 0 62 62" fill="none" xmlns="http://www.w3.org/2000/svg">
<g clip-path="url(#clip0_7_61)">
<path d="M18.9619 30.3351C23.5385 30.5631 27.4334 27.0379 27.6614 22.4614C27.8895 17.8848 24.3643 13.9899 19.7877 13.7619C15.2112 13.5339 11.3163 17.059 11.0882 21.6356C10.8602 26.2122 14.3854 30.1071 18.9619 30.3351Z" fill="#4CFFDB"/>
<path d="M28.1701 35.409C25.0111 33.6017 21.4667 32.7674 18.8472 32.6369C13.7165 32.3813 3.038 35.0036 2.72456 41.2946L2.48371 46.1284L19.7474 46.9886L19.8396 45.139C19.9486 42.9523 20.9785 40.8057 22.6809 39.0583C24.0392 37.663 25.9067 36.3981 28.1701 35.409Z" fill="#4CFFDB"/>
<path d="M40.4157 35.0961C34.4229 34.7975 22.277 37.9029 21.9109 45.2503L21.6356 50.7747L57.5442 52.5639L57.8195 47.0395C58.1855 39.692 46.4085 35.3947 40.4157 35.0961Z" fill="#4CFFDB"/>
<path d="M40.5992 31.4132C46.1927 31.6919 50.9532 27.3833 51.2319 21.7898C51.5106 16.1962 47.202 11.4358 41.6084 11.1571C36.0149 10.8784 31.2544 15.1869 30.9757 20.7805C30.697 26.3741 35.0056 31.1345 40.5992 31.4132Z" fill="#4CFFDB"/>
</g>
<defs>
<clipPath id="clip0_7_61">
<rect width="59" height="59" fill="white" transform="translate(2.93606) rotate(2.85243)"/>
</clipPath>
</defs>
</svg>
