<svg preserveAspectRatio="none" width="100%" height="100%" overflow="visible" style="display: block;" viewBox="0 0 33 33" fill="none" xmlns="http://www.w3.org/2000/svg">
<g id="carbon:security">
<rect width="33" height="33" stroke="var(--stroke-0, #4CFFDB)"/>
<path id="Vector" d="M14.4375 17.1084L11.7666 14.4375L10.3125 15.8916L14.4375 20.0166L22.6875 11.7666L21.2334 10.3125L14.4375 17.1084Z" fill="var(--fill-0, #4CFFDB)"/>
<path id="Vector_2" d="M16.5 30.9375L10.131 27.5416C8.31516 26.5758 6.79666 25.1337 5.73853 23.3701C4.68039 21.6065 4.12259 19.5879 4.125 17.5312V4.125C4.125 3.57799 4.3423 3.05339 4.72909 2.66659C5.11589 2.2798 5.64049 2.0625 6.1875 2.0625H26.8125C27.3595 2.0625 27.8841 2.2798 28.2709 2.66659C28.6577 3.05339 28.875 3.57799 28.875 4.125V17.5312C28.8774 19.5879 28.3196 21.6065 27.2615 23.3701C26.2033 25.1337 24.6848 26.5758 22.869 27.5416L16.5 30.9375ZM6.1875 4.125V17.5312C6.18635 19.2139 6.64319 20.8652 7.50903 22.308C8.37487 23.7508 9.61706 24.9308 11.1024 25.7214L16.5 28.5997L21.8976 25.7225C23.3831 24.9318 24.6254 23.7516 25.4912 22.3086C26.3571 20.8656 26.8138 19.2141 26.8125 17.5312V4.125H6.1875Z" fill="var(--fill-0, #4CFFDB)"/>
</g>
</svg>
