<svg preserveAspectRatio="none" width="100%" height="100%" overflow="visible" style="display: block;" viewBox="0 0 33 33" fill="none" xmlns="http://www.w3.org/2000/svg">
<g id="ri:robot-2-line">
<path id="Vector" d="M18.5625 2.75C18.5625 3.3605 18.2971 3.90912 17.875 4.28725V6.875H24.75C25.844 6.875 26.8932 7.3096 27.6668 8.08318C28.4404 8.85677 28.875 9.90598 28.875 11V24.75C28.875 25.844 28.4404 26.8932 27.6668 27.6668C26.8932 28.4404 25.844 28.875 24.75 28.875H8.25C7.15598 28.875 6.10677 28.4404 5.33318 27.6668C4.5596 26.8932 4.125 25.844 4.125 24.75V11C4.125 9.90598 4.5596 8.85677 5.33318 8.08318C6.10677 7.3096 7.15598 6.875 8.25 6.875H15.125V4.28725C14.8686 4.05789 14.6736 3.76803 14.5578 3.44405C14.442 3.12008 14.4091 2.77229 14.4621 2.43235C14.5151 2.09242 14.6522 1.77113 14.8611 1.49776C15.07 1.22438 15.3439 1.0076 15.658 0.867147C15.9721 0.726697 16.3163 0.667042 16.6593 0.693614C17.0023 0.720186 17.3332 0.832141 17.6219 1.01929C17.9106 1.20643 18.1479 1.46282 18.3122 1.7651C18.4765 2.06738 18.5625 2.40596 18.5625 2.75ZM8.25 9.625C7.88533 9.625 7.53559 9.76987 7.27773 10.0277C7.01987 10.2856 6.875 10.6353 6.875 11V24.75C6.875 25.1147 7.01987 25.4644 7.27773 25.7223C7.53559 25.9801 7.88533 26.125 8.25 26.125H24.75C25.1147 26.125 25.4644 25.9801 25.7223 25.7223C25.9801 25.4644 26.125 25.1147 26.125 24.75V11C26.125 10.6353 25.9801 10.2856 25.7223 10.0277C25.4644 9.76987 25.1147 9.625 24.75 9.625H8.25ZM2.75 13.75H0V22H2.75V13.75ZM30.25 13.75H33V22H30.25V13.75ZM12.375 19.9375C12.922 19.9375 13.4466 19.7202 13.8334 19.3334C14.2202 18.9466 14.4375 18.422 14.4375 17.875C14.4375 17.328 14.2202 16.8034 13.8334 16.4166C13.4466 16.0298 12.922 15.8125 12.375 15.8125C11.828 15.8125 11.3034 16.0298 10.9166 16.4166C10.5298 16.8034 10.3125 17.328 10.3125 17.875C10.3125 18.422 10.5298 18.9466 10.9166 19.3334C11.3034 19.7202 11.828 19.9375 12.375 19.9375ZM20.625 19.9375C21.172 19.9375 21.6966 19.7202 22.0834 19.3334C22.4702 18.9466 22.6875 18.422 22.6875 17.875C22.6875 17.328 22.4702 16.8034 22.0834 16.4166C21.6966 16.0298 21.172 15.8125 20.625 15.8125C20.078 15.8125 19.5534 16.0298 19.1666 16.4166C18.7798 16.8034 18.5625 17.328 18.5625 17.875C18.5625 18.422 18.7798 18.9466 19.1666 19.3334C19.5534 19.7202 20.078 19.9375 20.625 19.9375Z" fill="var(--fill-0, #4CFFDB)"/>
</g>
</svg>
