<svg preserveAspectRatio="none" width="100%" height="100%" overflow="visible" style="display: block;" viewBox="0 0 33 33" fill="none" xmlns="http://www.w3.org/2000/svg">
<g id="gravity-ui:circles-concentric">
<path id="Vector" fill-rule="evenodd" clip-rule="evenodd" d="M5.15625 16.5C5.15553 14.5305 5.66761 12.5947 6.6421 10.8831C7.6166 9.17156 9.01993 7.74321 10.714 6.73863C12.4081 5.73405 14.3345 5.18785 16.3038 5.15377C18.273 5.1197 20.2172 5.59893 21.945 6.54431C22.1236 6.64976 22.3215 6.71823 22.527 6.74565C22.7326 6.77307 22.9416 6.75888 23.1415 6.70393C23.3415 6.64897 23.5283 6.55438 23.691 6.42576C23.8537 6.29714 23.9888 6.13714 24.0884 5.95525C24.188 5.77336 24.25 5.5733 24.2707 5.36697C24.2914 5.16064 24.2705 4.95225 24.209 4.75418C24.1476 4.55612 24.047 4.37243 23.9132 4.21403C23.7793 4.05563 23.615 3.92575 23.43 3.83213C20.6913 2.33222 17.5402 1.76062 14.4492 2.20306C11.3582 2.64549 8.49398 4.0781 6.28604 6.28604C4.0781 8.49398 2.64549 11.3582 2.20306 14.4492C1.76062 17.5402 2.33222 20.6913 3.83213 23.43C4.03631 23.7758 4.36696 24.0286 4.75416 24.135C5.14135 24.2414 5.55476 24.1931 5.90698 24.0002C6.25919 23.8074 6.52261 23.4851 6.64155 23.1016C6.76048 22.7181 6.72562 22.3033 6.54431 21.945C5.6323 20.2751 5.15497 18.4027 5.15625 16.5ZM29.1679 9.57C29.0742 9.38497 28.9444 9.22066 28.786 9.08682C28.6276 8.95299 28.4439 8.85237 28.2458 8.79095C28.0478 8.72953 27.8394 8.70856 27.633 8.72929C27.4267 8.75002 27.2266 8.81202 27.0448 8.91161C26.8629 9.0112 26.7029 9.14634 26.5742 9.30901C26.4456 9.47167 26.351 9.65854 26.2961 9.85849C26.2411 10.0584 26.2269 10.2674 26.2544 10.473C26.2818 10.6785 26.3502 10.8764 26.4557 11.055C27.6344 13.2068 28.0836 15.6828 27.7361 18.1116C27.3885 20.5404 26.2629 22.791 24.528 24.5259C22.7931 26.2608 20.5424 27.3865 18.1137 27.734C15.6849 28.0816 13.2089 27.6323 11.0571 26.4536C10.6971 26.2562 10.2735 26.2098 9.87935 26.3246C9.48521 26.4395 9.15285 26.7063 8.95537 27.0662C8.7579 27.4261 8.7115 27.8498 8.82638 28.2439C8.94126 28.638 9.20801 28.9704 9.56794 29.1679C12.3066 30.6678 15.4577 31.2394 18.5487 30.7969C21.6397 30.3545 24.504 28.9219 26.7119 26.714C28.9198 24.506 30.3525 21.6418 30.7949 18.5508C31.2373 15.4598 30.6657 12.3087 29.1658 9.57M19.5938 16.5C19.5938 17.3205 19.2678 18.1074 18.6876 18.6876C18.1074 19.2678 17.3205 19.5938 16.5 19.5938C15.6795 19.5938 14.8926 19.2678 14.3124 18.6876C13.7322 18.1074 13.4062 17.3205 13.4062 16.5C13.4062 15.6795 13.7322 14.8926 14.3124 14.3124C14.8926 13.7322 15.6795 13.4062 16.5 13.4062C17.3205 13.4062 18.1074 13.7322 18.6876 14.3124C19.2678 14.8926 19.5938 15.6795 19.5938 16.5ZM22.6875 16.5C22.6875 18.141 22.0356 19.7148 20.8752 20.8752C19.7148 22.0356 18.141 22.6875 16.5 22.6875C14.859 22.6875 13.2852 22.0356 12.1248 20.8752C10.9644 19.7148 10.3125 18.141 10.3125 16.5C10.3125 14.859 10.9644 13.2852 12.1248 12.1248C13.2852 10.9644 14.859 10.3125 16.5 10.3125C18.141 10.3125 19.7148 10.9644 20.8752 12.1248C22.0356 13.2852 22.6875 14.859 22.6875 16.5Z" fill="var(--fill-0, #4CFFDB)"/>
</g>
</svg>
