<svg preserveAspectRatio="none" width="100%" height="100%" overflow="visible" style="display: block;" viewBox="0 0 33 33" fill="none" xmlns="http://www.w3.org/2000/svg">
<g id="lucide:headphones">
<path id="Vector" d="M4.125 19.25H8.25C8.97935 19.25 9.67882 19.5397 10.1945 20.0555C10.7103 20.5712 11 21.2707 11 22V26.125C11 26.8543 10.7103 27.5538 10.1945 28.0695C9.67882 28.5853 8.97935 28.875 8.25 28.875H6.875C6.14565 28.875 5.44618 28.5853 4.93046 28.0695C4.41473 27.5538 4.125 26.8543 4.125 26.125V16.5C4.125 13.2179 5.42879 10.0703 7.74955 7.74955C10.0703 5.42879 13.2179 4.125 16.5 4.125C19.7821 4.125 22.9297 5.42879 25.2504 7.74955C27.5712 10.0703 28.875 13.2179 28.875 16.5V26.125C28.875 26.8543 28.5853 27.5538 28.0695 28.0695C27.5538 28.5853 26.8543 28.875 26.125 28.875H24.75C24.0207 28.875 23.3212 28.5853 22.8055 28.0695C22.2897 27.5538 22 26.8543 22 26.125V22C22 21.2707 22.2897 20.5712 22.8055 20.0555C23.3212 19.5397 24.0207 19.25 24.75 19.25H28.875" stroke="var(--stroke-0, #4CFFDB)" stroke-width="2.75" stroke-linecap="round" stroke-linejoin="round"/>
</g>
</svg>
