<svg width="61" height="54" viewBox="0 0 61 54" fill="none" xmlns="http://www.w3.org/2000/svg">
<path fill-rule="evenodd" clip-rule="evenodd" d="M5.59183 6.10352e-05L3.77814 2.98198H0L1.8886 6.10506L0 9.21931H3.77814L5.59183 12.2012L7.40552 9.21931H11.1837L9.29412 6.10506L11.1837 2.98198H7.40552L5.59183 6.10352e-05ZM21.9975 6.10352e-05L20.1838 2.98198H16.4056L18.2942 6.10506L16.4056 9.21931H20.1838L21.9975 12.2012L23.8102 9.21931H27.5884L25.6998 6.10506L27.5884 2.98198H23.8102L21.9975 6.10352e-05ZM38.4003 6.10352e-05L36.5894 2.98198H32.8113L34.6999 6.10506L32.8113 9.21931H36.5894L38.4003 12.2012L40.2131 9.21931H43.9912L42.1026 6.10506L43.9912 2.98198H40.2131L38.4003 6.10352e-05ZM54.8584 6.10352e-05L53.0447 2.98198H49.2665L51.1561 6.10506L49.2665 9.21931H53.0447L54.8584 12.2012L56.6721 9.21931H60.4502L58.5606 6.10506L60.4502 2.98198H56.6721L54.8584 6.10352e-05ZM14.032 13.5157L12.2183 16.4977H8.44018L10.3297 19.6119L8.44018 22.7262H12.2183L14.032 25.7169L15.8457 22.7262H19.6238L17.7352 19.6119L19.6238 16.4977H15.8457L14.032 13.5157ZM30.2251 13.5157L28.4114 16.4977H24.6333L26.5228 19.6119L24.6333 22.7262H28.4114L30.2251 25.7169L32.0388 22.7262H35.8169L33.9274 19.6119L35.8169 16.4977H32.0388L30.2251 13.5157ZM46.4182 13.5157L44.6045 16.4977H40.8264L42.715 19.6119L40.8264 22.7262H44.6045L46.4182 25.7169L48.2319 22.7262H52.01L50.1205 19.6119L52.01 16.4977H48.2319L46.4182 13.5157ZM0.170414 29.8369V36.9653L11.4524 36.9829L0.170414 46.6433V53.8864H23.416V46.9697H10.9758L23.416 36.8153V29.8369H0.170414ZM26.2765 29.8369V53.8864H32.7298V29.8369H26.2765ZM35.3132 29.8369V53.8864H42.1531V42.5762L46.2187 53.8864H50.0671L54.1336 42.5762V53.8864H60.4277V29.8369H52.3621L48.1869 40.9353L44.008 29.8369H35.3132Z" fill="#8A8A8A"/>
</svg>
