<svg preserveAspectRatio="none" width="100%" height="100%" overflow="visible" style="display: block;" viewBox="0 0 61 61" fill="none" xmlns="http://www.w3.org/2000/svg">
<g id="sidekickicons:quotation-mark-20-solid">
<path id="Vector" d="M16.775 19.825C10.9281 19.825 6.1 24.6562 6.1 30.5C6.1 33.1687 6.82285 35.4807 8.20755 37.2436C9.22015 38.5337 10.7177 39.2352 12.1725 39.9886C12.2518 42.4255 12.1115 43.0935 10.1595 47.0036C9.1317 49.0593 11.4375 51.1759 13.3986 49.9773C23.7839 43.5845 27.45 36.0906 27.45 30.5C27.45 24.6562 22.6219 19.825 16.775 19.825ZM44.225 19.825C38.3782 19.825 33.55 24.6562 33.55 30.5C33.55 33.1687 34.2729 35.4807 35.6576 37.2436C36.6702 38.5337 38.1677 39.2352 39.6226 39.9886C39.7019 42.4255 39.5616 43.0935 37.6096 47.0036C36.5817 49.0593 38.8875 51.1759 40.8487 49.9773C51.2339 43.5845 54.9 36.0906 54.9 30.5C54.9 24.6562 50.0719 19.825 44.225 19.825Z" fill="var(--fill-0, #A434FF)"/>
</g>
</svg>
