<svg width="82" height="82" viewBox="0 0 82 82" fill="none" xmlns="http://www.w3.org/2000/svg">
<g filter="url(#filter0_d_18_308)">
<rect x="8" y="8" width="64" height="64" rx="15" fill="url(#paint0_linear_18_308)" fill-opacity="0.38" shape-rendering="crispEdges"/>
<path d="M42.5625 26.75C42.5625 27.3605 42.2971 27.9092 41.875 28.2873V30.875H48.75C49.844 30.875 50.8932 31.3096 51.6668 32.0832C52.4404 32.8568 52.875 33.906 52.875 35V48.75C52.875 49.8441 52.4404 50.8933 51.6668 51.6669C50.8932 52.4405 49.844 52.875 48.75 52.875H32.25C31.156 52.875 30.1068 52.4405 29.3332 51.6669C28.5596 50.8933 28.125 49.8441 28.125 48.75V35C28.125 33.906 28.5596 32.8568 29.3332 32.0832C30.1068 31.3096 31.156 30.875 32.25 30.875H39.125V28.2873C38.8686 28.0579 38.6736 27.7681 38.5578 27.4441C38.442 27.1201 38.4091 26.7723 38.4621 26.4324C38.5151 26.0925 38.6523 25.7712 38.8611 25.4978C39.07 25.2244 39.3439 25.0076 39.658 24.8672C39.9721 24.7267 40.3163 24.6671 40.6593 24.6937C41.0023 24.7202 41.3332 24.8322 41.6219 25.0193C41.9106 25.2065 42.1479 25.4629 42.3122 25.7651C42.4765 26.0674 42.5625 26.406 42.5625 26.75ZM32.25 33.625C31.8853 33.625 31.5356 33.7699 31.2777 34.0278C31.0199 34.2856 30.875 34.6354 30.875 35V48.75C30.875 49.1147 31.0199 49.4645 31.2777 49.7223C31.5356 49.9802 31.8853 50.125 32.25 50.125H48.75C49.1147 50.125 49.4644 49.9802 49.7223 49.7223C49.9801 49.4645 50.125 49.1147 50.125 48.75V35C50.125 34.6354 49.9801 34.2856 49.7223 34.0278C49.4644 33.7699 49.1147 33.625 48.75 33.625H32.25ZM26.75 37.75H24V46H26.75V37.75ZM54.25 37.75H57V46H54.25V37.75ZM36.375 43.9375C36.922 43.9375 37.4466 43.7202 37.8334 43.3335C38.2202 42.9467 38.4375 42.4221 38.4375 41.875C38.4375 41.328 38.2202 40.8034 37.8334 40.4166C37.4466 40.0298 36.922 39.8125 36.375 39.8125C35.828 39.8125 35.3034 40.0298 34.9166 40.4166C34.5298 40.8034 34.3125 41.328 34.3125 41.875C34.3125 42.4221 34.5298 42.9467 34.9166 43.3335C35.3034 43.7202 35.828 43.9375 36.375 43.9375ZM44.625 43.9375C45.172 43.9375 45.6966 43.7202 46.0834 43.3335C46.4702 42.9467 46.6875 42.4221 46.6875 41.875C46.6875 41.328 46.4702 40.8034 46.0834 40.4166C45.6966 40.0298 45.172 39.8125 44.625 39.8125C44.078 39.8125 43.5534 40.0298 43.1666 40.4166C42.7798 40.8034 42.5625 41.328 42.5625 41.875C42.5625 42.4221 42.7798 42.9467 43.1666 43.3335C43.5534 43.7202 44.078 43.9375 44.625 43.9375Z" fill="#4CFFDB"/>
</g>
<defs>
<filter id="filter0_d_18_308" x="0" y="0" width="82" height="82" filterUnits="userSpaceOnUse" color-interpolation-filters="sRGB">
<feFlood flood-opacity="0" result="BackgroundImageFix"/>
<feColorMatrix in="SourceAlpha" type="matrix" values="0 0 0 0 0 0 0 0 0 0 0 0 0 0 0 0 0 0 127 0" result="hardAlpha"/>
<feMorphology radius="2" operator="dilate" in="SourceAlpha" result="effect1_dropShadow_18_308"/>
<feOffset dx="1" dy="1"/>
<feGaussianBlur stdDeviation="3.5"/>
<feComposite in2="hardAlpha" operator="out"/>
<feColorMatrix type="matrix" values="0 0 0 0 0.205897 0 0 0 0 0.63377 0 0 0 0 0.548196 0 0 0 0.89 0"/>
<feBlend mode="normal" in2="BackgroundImageFix" result="effect1_dropShadow_18_308"/>
<feBlend mode="normal" in="SourceGraphic" in2="effect1_dropShadow_18_308" result="shape"/>
</filter>
<linearGradient id="paint0_linear_18_308" x1="-30" y1="-38" x2="40" y2="72" gradientUnits="userSpaceOnUse">
<stop stop-color="#181818"/>
<stop offset="1" stop-color="#35A28C"/>
</linearGradient>
</defs>
</svg>
