<svg width="82" height="82" viewBox="0 0 82 82" fill="none" xmlns="http://www.w3.org/2000/svg">
<g filter="url(#filter0_d_18_318)">
<rect x="8" y="8" width="64" height="64" rx="15" fill="url(#paint0_linear_18_318)" fill-opacity="0.38" shape-rendering="crispEdges"/>
<rect x="24" y="24" width="33" height="33" stroke="#4CFFDB"/>
<path d="M38.4375 41.1084L35.7666 38.4375L34.3125 39.8916L38.4375 44.0166L46.6875 35.7666L45.2334 34.3125L38.4375 41.1084Z" fill="#4CFFDB"/>
<path d="M40.5 54.9375L34.131 51.5416C32.3152 50.5758 30.7967 49.1337 29.7385 47.3701C28.6804 45.6065 28.1226 43.5879 28.125 41.5312V28.125C28.125 27.578 28.3423 27.0534 28.7291 26.6666C29.1159 26.2798 29.6405 26.0625 30.1875 26.0625H50.8125C51.3595 26.0625 51.8841 26.2798 52.2709 26.6666C52.6577 27.0534 52.875 27.578 52.875 28.125V41.5312C52.8774 43.5879 52.3196 45.6065 51.2615 47.3701C50.2033 49.1337 48.6848 50.5758 46.869 51.5416L40.5 54.9375ZM30.1875 28.125V41.5312C30.1864 43.2139 30.6432 44.8652 31.509 46.308C32.3749 47.7508 33.6171 48.9308 35.1024 49.7214L40.5 52.5997L45.8976 49.7225C47.3831 48.9318 48.6254 47.7516 49.4912 46.3086C50.3571 44.8656 50.8138 43.2141 50.8125 41.5312V28.125H30.1875Z" fill="#4CFFDB"/>
</g>
<defs>
<filter id="filter0_d_18_318" x="0" y="0" width="82" height="82" filterUnits="userSpaceOnUse" color-interpolation-filters="sRGB">
<feFlood flood-opacity="0" result="BackgroundImageFix"/>
<feColorMatrix in="SourceAlpha" type="matrix" values="0 0 0 0 0 0 0 0 0 0 0 0 0 0 0 0 0 0 127 0" result="hardAlpha"/>
<feMorphology radius="2" operator="dilate" in="SourceAlpha" result="effect1_dropShadow_18_318"/>
<feOffset dx="1" dy="1"/>
<feGaussianBlur stdDeviation="3.5"/>
<feComposite in2="hardAlpha" operator="out"/>
<feColorMatrix type="matrix" values="0 0 0 0 0.205897 0 0 0 0 0.63377 0 0 0 0 0.548196 0 0 0 0.89 0"/>
<feBlend mode="normal" in2="BackgroundImageFix" result="effect1_dropShadow_18_318"/>
<feBlend mode="normal" in="SourceGraphic" in2="effect1_dropShadow_18_318" result="shape"/>
</filter>
<linearGradient id="paint0_linear_18_318" x1="-30" y1="-38" x2="40" y2="72" gradientUnits="userSpaceOnUse">
<stop stop-color="#181818"/>
<stop offset="1" stop-color="#35A28C"/>
</linearGradient>
</defs>
</svg>
