<svg width="82" height="82" viewBox="0 0 82 82" fill="none" xmlns="http://www.w3.org/2000/svg">
<g filter="url(#filter0_d_18_332)">
<rect x="8" y="8" width="64" height="64" rx="15" fill="url(#paint0_linear_18_332)" fill-opacity="0.38" shape-rendering="crispEdges"/>
<path fill-rule="evenodd" clip-rule="evenodd" d="M29.1562 40.5C29.1555 38.5305 29.6676 36.5947 30.6421 34.8831C31.6166 33.1716 33.0199 31.7432 34.714 30.7386C36.4081 29.734 38.3345 29.1878 40.3038 29.1538C42.273 29.1197 44.2172 29.5989 45.945 30.5443C46.1236 30.6498 46.3215 30.7182 46.527 30.7456C46.7326 30.7731 46.9416 30.7589 47.1415 30.7039C47.3415 30.649 47.5283 30.5544 47.691 30.4258C47.8537 30.2971 47.9888 30.1371 48.0884 29.9552C48.188 29.7734 48.25 29.5733 48.2707 29.367C48.2914 29.1606 48.2705 28.9522 48.209 28.7542C48.1476 28.5561 48.047 28.3724 47.9132 28.214C47.7793 28.0556 47.615 27.9258 47.43 27.8321C44.6913 26.3322 41.5402 25.7606 38.4492 26.2031C35.3582 26.6455 32.494 28.0781 30.286 30.286C28.0781 32.494 26.6455 35.3582 26.2031 38.4492C25.7606 41.5402 26.3322 44.6913 27.8321 47.43C28.0363 47.7758 28.367 48.0286 28.7542 48.135C29.1414 48.2414 29.5548 48.1931 29.907 48.0002C30.2592 47.8074 30.5226 47.4851 30.6415 47.1016C30.7605 46.7181 30.7256 46.3033 30.5443 45.945C29.6323 44.2751 29.155 42.4027 29.1562 40.5ZM53.1679 33.57C53.0742 33.385 52.9444 33.2207 52.786 33.0868C52.6276 32.953 52.4439 32.8524 52.2458 32.791C52.0478 32.7295 51.8394 32.7086 51.633 32.7293C51.4267 32.75 51.2266 32.812 51.0448 32.9116C50.8629 33.0112 50.7029 33.1463 50.5742 33.309C50.4456 33.4717 50.351 33.6585 50.2961 33.8585C50.2411 34.0584 50.2269 34.2674 50.2544 34.473C50.2818 34.6785 50.3502 34.8764 50.4557 35.055C51.6344 37.2068 52.0836 39.6828 51.7361 42.1116C51.3885 44.5404 50.2629 46.791 48.528 48.5259C46.7931 50.2608 44.5424 51.3865 42.1137 51.734C39.6849 52.0816 37.2089 51.6323 35.0571 50.4536C34.6971 50.2562 34.2735 50.2098 33.8794 50.3246C33.4852 50.4395 33.1528 50.7063 32.9554 51.0662C32.7579 51.4261 32.7115 51.8498 32.8264 52.2439C32.9413 52.638 33.208 52.9704 33.5679 53.1679C36.3066 54.6678 39.4577 55.2394 42.5487 54.7969C45.6397 54.3545 48.504 52.9219 50.7119 50.714C52.9198 48.506 54.3524 45.6418 54.7949 42.5508C55.2373 39.4598 54.6657 36.3087 53.1658 33.57M43.5937 40.5C43.5937 41.3205 43.2678 42.1074 42.6876 42.6876C42.1074 43.2678 41.3205 43.5937 40.5 43.5937C39.6795 43.5937 38.8926 43.2678 38.3124 42.6876C37.7322 42.1074 37.4062 41.3205 37.4062 40.5C37.4062 39.6795 37.7322 38.8926 38.3124 38.3124C38.8926 37.7322 39.6795 37.4062 40.5 37.4062C41.3205 37.4062 42.1074 37.7322 42.6876 38.3124C43.2678 38.8926 43.5937 39.6795 43.5937 40.5ZM46.6875 40.5C46.6875 42.141 46.0356 43.7148 44.8752 44.8752C43.7148 46.0356 42.141 46.6875 40.5 46.6875C38.859 46.6875 37.2852 46.0356 36.1248 44.8752C34.9644 43.7148 34.3125 42.141 34.3125 40.5C34.3125 38.859 34.9644 37.2852 36.1248 36.1248C37.2852 34.9644 38.859 34.3125 40.5 34.3125C42.141 34.3125 43.7148 34.9644 44.8752 36.1248C46.0356 37.2852 46.6875 38.859 46.6875 40.5Z" fill="#4CFFDB"/>
</g>
<defs>
<filter id="filter0_d_18_332" x="0" y="0" width="82" height="82" filterUnits="userSpaceOnUse" color-interpolation-filters="sRGB">
<feFlood flood-opacity="0" result="BackgroundImageFix"/>
<feColorMatrix in="SourceAlpha" type="matrix" values="0 0 0 0 0 0 0 0 0 0 0 0 0 0 0 0 0 0 127 0" result="hardAlpha"/>
<feMorphology radius="2" operator="dilate" in="SourceAlpha" result="effect1_dropShadow_18_332"/>
<feOffset dx="1" dy="1"/>
<feGaussianBlur stdDeviation="3.5"/>
<feComposite in2="hardAlpha" operator="out"/>
<feColorMatrix type="matrix" values="0 0 0 0 0.205897 0 0 0 0 0.63377 0 0 0 0 0.548196 0 0 0 0.89 0"/>
<feBlend mode="normal" in2="BackgroundImageFix" result="effect1_dropShadow_18_332"/>
<feBlend mode="normal" in="SourceGraphic" in2="effect1_dropShadow_18_332" result="shape"/>
</filter>
<linearGradient id="paint0_linear_18_332" x1="-30" y1="-38" x2="40" y2="72" gradientUnits="userSpaceOnUse">
<stop stop-color="#181818"/>
<stop offset="1" stop-color="#35A28C"/>
</linearGradient>
</defs>
</svg>
